<?xml version="1.0" encoding="UTF-8" standalone="no"?>
<svg
   xmlns:dc="http://purl.org/dc/elements/1.1/"
   xmlns:cc="http://creativecommons.org/ns#"
   xmlns:rdf="http://www.w3.org/1999/02/22-rdf-syntax-ns#"
   xmlns:svg="http://www.w3.org/2000/svg"
   xmlns="http://www.w3.org/2000/svg"
   xmlns:sodipodi="http://sodipodi.sourceforge.net/DTD/sodipodi-0.dtd"
   xmlns:inkscape="http://www.inkscape.org/namespaces/inkscape"
   inkscape:version="1.0 (4035a4fb49, 2020-05-01)"
   sodipodi:docname="undraw_code_inspection_bdl7.svg"
   version="1.1"
   viewBox="0 0 845.7243 704.03133"
   height="704.03133"
   width="845.7243"
   data-name="Layer 1"
   id="a5f41e37-d8d4-4d60-9e97-29ee7ebe1bc1">
  <metadata
     id="metadata38">
    <rdf:RDF>
      <cc:Work
         rdf:about="">
        <dc:format>image/svg+xml</dc:format>
        <dc:type
           rdf:resource="http://purl.org/dc/dcmitype/StillImage" />
      </cc:Work>
    </rdf:RDF>
  </metadata>
  <defs
     id="defs36" />
  <sodipodi:namedview
     inkscape:current-layer="f1503154-f50a-4680-8aa4-587be41cac87"
     inkscape:window-maximized="0"
     inkscape:window-y="0"
     inkscape:window-x="0"
     inkscape:cy="223.3307"
     inkscape:cx="114.09902"
     inkscape:zoom="0.84863753"
     showgrid="false"
     id="namedview34"
     inkscape:window-height="795"
     inkscape:window-width="2080"
     inkscape:pageshadow="2"
     inkscape:pageopacity="0"
     guidetolerance="10"
     gridtolerance="10"
     objecttolerance="10"
     borderopacity="1"
     bordercolor="#666666"
     pagecolor="#ffffff" />
  <g
     data-name="Group 2"
     id="f1503154-f50a-4680-8aa4-587be41cac87">
    <path
       fill="#feb8b8"
       transform="translate(-177.13785 -97.98434)"
       d="M880.72383,762.75434l-1.464,19.525-29.773-9.762,12.2-14.643Z"
       data-name="Path 4"
       id="a9e5a31c-10e6-4175-9779-4994367672f7" />
    <path
       fill="#feb8b8"
       transform="translate(-177.13785 -97.98434)"
       d="M989.08286,756.40934l-1.467,19.035-16.595,2.441-9.762-9.274,11.226-18.06Z"
       data-name="Path 5"
       id="f499a4aa-6a35-40fc-8432-e4c7ab26d048" />
    <path
       fill="#2f2e41"
       transform="translate(-177.13785 -97.98434)"
       d="M1001.28487,513.33633s13.179,15.619-3.417,39.536-36.607,47.346-36.607,47.346l-37.1,70.286s-19.036,68.822-23.429,70.774-6.833-5.857-4.393,2.44.976,7.81-.976,8.3-7.321-.488-5.369,2.929,3.417,3.417-.488,3.417-5.369-2.44-5.369.976-3.417,11.226-3.417,11.226-23.917-6.833-24.893-9.762,6.345-4.393,4.881-7.321-1.952-2.929-1.952-7.321,2.929-5.369,2.929-5.369,2.44-.976,1.464-2.929-4.881-.976,0-3.417,24.895-77.121,24.895-77.121,0-37.1,6.345-49.3,1.464-99.084,16.6-100.06S1001.28487,513.33633,1001.28487,513.33633Z"
       data-name="Path 6"
       id="fb70bf31-eafd-4d8a-8310-5130d8d104e1" />
    <path
       fill="#2f2e41"
       transform="translate(-177.13785 -97.98434)"
       d="M996.40382,541.15733l-2.929,75.655s14.643,73.215,9.762,95.667-1.464,19.524-4.393,23.429-5.369,1.952-2.929,5.369,3.9,4.393,0,8.3-5.857,13.179-5.857,13.179l-24.893-2.44s6.345-11.226,3.9-13.667-8.786,1.464-3.9-3.9,7.81-2.929,4.881-5.369-7.321-1.464-3.417-5.369,8.3-3.9,4.393-5.369-8.3,0-6.345-2.929,4.393-6.345,4.393-6.345l-5.857-44.417s-6.833-14.643-4.881-20.988-8.3-58.572-8.3-58.572Z"
       data-name="Path 7"
       id="a89455c2-275d-4b70-b13c-192fbe474176" />
    <path
       fill="#2f2e41"
       transform="translate(-177.13785 -97.98434)"
       d="M985.66786,766.17034s4.881-4.881,6.345-1.952,12.2,29.286,5.857,31.238-15.619,3.9-20.5,2.44-15.131-8.3-27.333-8.3-22.452-5.369-22.452-7.321-1.952-13.667,7.321-13.667,26.357-10.738,26.357-10.738,3.9-7.81,5.857-7.321.488,16.107.488,16.107S978.83186,777.39635,985.66786,766.17034Z"
       data-name="Path 8"
       id="a3024be5-ad86-493a-9bfb-258ab58160a1" />
    <path
       fill="#2f2e41"
       transform="translate(-177.13785 -97.98434)"
       d="M877.30785,772.51535s4.393-10.738,8.786-8.3,1.464,32.7,1.464,32.7-3.9,6.345-15.131,4.881-41-4.881-47.834-3.417-25.381-6.833-20.5-18.06c0,0,2.44-6.345,14.155-5.857s33.191-13.667,33.191-13.667,3.417-9.762,4.393-8.786,1.952,18.06,1.952,18.06S870.47484,778.37235,877.30785,772.51535Z"
       data-name="Path 9"
       id="a57c92ce-496a-44de-934b-3ddd78679762" />
    <circle
       fill="#feb8b8"
       r="28.31"
       cy="196.19599"
       cx="764.11101"
       data-name="Ellipse 2"
       id="fa315d33-3eeb-4d45-ab88-aeb0e9694c5a" />
    <path
       fill="#feb8b8"
       transform="translate(-177.13785 -97.98434)"
       d="M963.21288,296.13233s15.131,30.262,20.5,33.191-36.607,20.989-36.607,20.989-6.833-29.774-15.131-36.119S963.21288,296.13233,963.21288,296.13233Z"
       data-name="Path 10"
       id="fbae87ba-2986-46ef-9932-134b7e0cae24" />
    <path
       fill="#feb8b8"
       transform="translate(-177.13785 -97.98434)"
       d="M919.77283,543.59733l-1.952,18.548s-20.988-7.321-14.155-20.988Z"
       data-name="Path 11"
       id="fc15680c-e415-4000-ac02-b1f296562473" />
    <path
       fill="#f0f0f0"
       transform="translate(-177.13785 -97.98434)"
       d="M911.47784,515.77634c14.643,15.615,92.247,2.436,92.247,2.436l-.972-11.225,9.762-10.243-2.927-47.837s8.78-22.45,10.243-56.617a30.78024,30.78024,0,0,0-.378-6.278c-5.032-30.607-54.87-50.32-56.239-49.857-.689.227-8.025,4.05-15.681,8.072-8.789,4.617-17.994,9.5-17.994,9.5-11.716,4.4-9.762,74.687-13.67,81.031s0,28.3,0,28.3l-4.39,20.987S896.83087,500.16132,911.47784,515.77634Z"
       data-name="Path 12"
       id="ae3770ab-4aa4-41b9-9f4d-4c69df699916" />
    <path
       style="isolation:isolate"
       opacity="0.1"
       transform="translate(-177.13785 -97.98434)"
       d="M958.78288,360.82433s13.667,41,10.738,68.822-34.655,107.382-34.655,107.382l-10.733,5.857v13.666l-7.553-20.458,20.77-43.428S911.43285,342.76534,958.78288,360.82433Z"
       data-name="Path 13"
       id="b41fb511-fd5e-48e5-b733-0d9230f6b6d5" />
    <path
       style="isolation:isolate"
       opacity="0.1"
       transform="translate(-177.13785 -97.98434)"
       d="M945.96487,348.52235c14.161-7.808,35.639,12.7,58.09,34.657,8.063,7.883,12.726,7.09,15.4,2.832-5.032-30.607-54.87-50.32-56.239-49.857-.689.227-8.025,4.05-15.681,8.072Z"
       data-name="Path 14"
       id="efbdbf49-3b58-4bc5-8391-5fbab31acdf7" />
    <path
       fill="#f0f0f0"
       transform="translate(-177.13785 -97.98434)"
       d="M945.97183,344.74934l5.857-16.107s40.024-19.036,66.381,0l4.393,27.333s3.9,45.393-18.548,23.429S960.12485,336.93934,945.97183,344.74934Z"
       data-name="Path 15"
       id="a2828270-d54b-4ede-bb2b-8639f55947f0" />
    <path
       fill="#f0f0f0"
       transform="translate(-177.13785 -97.98434)"
       d="M957.35687,354.21633s13.667,41,10.738,68.822-34.655,107.382-34.655,107.382l-10.738,5.861v13.667l-22.452-6.345,4.881-16.107s-7.81-9.762-2.44-12.691,4.393-19.036,4.393-19.036S910.01086,336.15633,957.35687,354.21633Z"
       data-name="Path 16"
       id="f68da632-d878-40c3-a103-67cfc5c970db" />
    <path
       fill="#2f2e41"
       transform="translate(-177.13785 -97.98434)"
       d="M966.48688,306.03134c-.462-2.188-.4-4.542-1.448-6.517-1.573-2.961-5.188-4.2-8.529-4.492-4.265-.371-8.562.367-12.833.075s-8.833-1.92-10.959-5.635c-.848-1.482-1.266-3.227-2.391-4.512-2.341-2.674-6.608-2.26-9.972-1.114s-6.873,2.82-10.312,1.924c-2.892-8.091.669-17.424,6.828-23.415s14.465-9.215,22.715-11.618c10.881-3.17,23.126-5.043,33.13.282,14.507,7.721,19.626,28.158,18.288,43.39-.506,5.758-1.333,12.278-5.988,16.165C978.19385,316.26233,968.54687,315.77333,966.48688,306.03134Z"
       data-name="Path 17"
       id="f57115f6-7f5b-4177-880b-f5eff1305e5b" />
    <rect
       fill="#e6e6e6"
       height="391.60699"
       width="611.461"
       y="0.347"
       x="0.26201"
       data-name="Rectangle 1"
       id="e1abf0e4-070b-4c82-8a12-ebedd4e3db02" />
    <rect
       fill="#fff"
       height="319.32199"
       width="576.492"
       y="49.464"
       x="19.746"
       data-name="Rectangle 2"
       id="ace8bea0-82e8-49b8-a50c-1e1cb532084f" />
    <rect
       style="fill:#4972a1;fill-opacity:1"
       fill="#6c63ff"
       height="25.977"
       width="611.461"
       data-name="Rectangle 3"
       id="b540f353-e277-4512-bc56-a133cea2858b" />
    <circle
       fill="#fff"
       r="4.815"
       cy="13.281"
       cx="19.30501"
       data-name="Ellipse 3"
       id="b2b285b5-c1c3-4b12-9710-2898c7239781" />
    <circle
       fill="#fff"
       r="4.815"
       cy="13.281"
       cx="37.58001"
       data-name="Ellipse 4"
       id="a5a428bb-42a2-4f57-9e6c-9979c01a2490" />
    <circle
       fill="#fff"
       r="4.815"
       cy="13.281"
       cx="55.85501"
       data-name="Ellipse 5"
       id="a9929a25-14ce-4464-bac9-4165f1e3fae6" />
    <path
       style="fill:#4972a1;fill-opacity:1"
       fill="#6c63ff"
       transform="translate(-177.13785 -97.98434)"
       d="M297.74287,192.20533l-38.133,37.657,38.133,37.656,8.58-8.58-28.835-28.839,29.076-29.076Z"
       data-name="Path 37"
       id="b4a2d72b-abc3-4d2f-a2b8-a2aff6897b26" />
    <path
       style="fill:#4972a1;fill-opacity:1"
       fill="#6c63ff"
       transform="translate(-177.13785 -97.98434)"
       d="M328.98787,192.20533l38.132,37.657-38.132,37.656-8.58-8.58,28.837-28.838-29.078-29.077Z"
       data-name="Path 38"
       id="b5120d89-6cbe-4bfa-9a1b-cf9b07deff91" />
    <path
       fill="#e6e6e6"
       transform="translate(-177.13785 -97.98434)"
       d="M452.33185,201.65533c-3.119,0-5.647,1.794-5.647,4.006s2.528,4.006,5.647,4.006h266.214c3.119,0,5.647-1.794,5.647-4.006s-2.528-4.006-5.647-4.006Z"
       data-name="Path 65"
       id="a31271bd-8e2f-469b-8cee-8b6db3f92f99" />
    <path
       fill="#e6e6e6"
       transform="translate(-177.13785 -97.98434)"
       d="M715.89888,421.13433h-447.838c-4.578,0-8.288-2.643-8.293-5.9v-79.042c.005-3.257,3.715-5.9,8.293-5.9h447.838c4.578,0,8.288,2.643,8.293,5.9v79.041C724.18788,418.49035,720.47688,421.13034,715.89888,421.13433Zm-447.838-88.484c-2.747,0-4.973,1.586-4.976,3.54v79.041c0,1.954,2.229,3.538,4.976,3.54h447.838c2.747,0,4.973-1.586,4.976-3.54v-79.039c0-1.954-2.229-3.538-4.976-3.54Z"
       data-name="Path 78"
       id="bf577952-0fd5-43e0-be6b-ea1966b51a93" />
    <circle
       fill="#e6e6e6"
       r="20.036"
       cy="277.695"
       cx="137.04001"
       data-name="Ellipse 13"
       id="f7f4957b-eaa8-456b-bf02-bacf7de3ef80" />
    <path
       style="fill:#4972a1;fill-opacity:1"
       fill="#6c63ff"
       transform="translate(-177.13785 -97.98434)"
       d="M370.68788,359.65533a4.006,4.006,0,0,0-.01037,8.012H559.54884a4.006,4.006,0,0,0,0-8.012Z"
       data-name="Path 79"
       id="fb0f055d-da6e-47f2-bb6d-7ff26d7b746a" />
    <path
       style="fill:#4972a1;fill-opacity:1"
       fill="#6c63ff"
       transform="translate(-177.13785 -97.98434)"
       d="M370.68788,383.69235a4.006,4.006,0,0,0-.01037,8.012h81.27636a4.006,4.006,0,0,0,.01038-8.012H370.68788Z"
       data-name="Path 80"
       id="bfcde504-8c45-4d21-843b-87b1f7e22ce0" />
    <path
       fill="#e6e6e6"
       transform="translate(-177.13785 -97.98434)"
       d="M450.38788,225.65533a4.019,4.019,0,0,0,0,8.012h174.47a4.019,4.019,0,0,0,0-8.012Z"
       data-name="Path 81"
       id="a66699ea-75f1-4575-b6d5-52b0b1f8e30c" />
    <path
       fill="#e6e6e6"
       transform="translate(-177.13785 -97.98434)"
       d="M451.53583,249.65533c-2.679,0-4.851,1.794-4.851,4.006s2.172,4.006,4.851,4.006h228.7c2.679,0,4.851-1.794,4.851-4.006s-2.172-4.006-4.851-4.006Z"
       data-name="Path 82"
       id="bbc4ca7b-25d4-4c7e-b3d4-0411f69bd48f" />
  </g>
</svg>
