<?xml version="1.0" encoding="UTF-8" standalone="no"?>
<svg
   xmlns:dc="http://purl.org/dc/elements/1.1/"
   xmlns:cc="http://creativecommons.org/ns#"
   xmlns:rdf="http://www.w3.org/1999/02/22-rdf-syntax-ns#"
   xmlns:svg="http://www.w3.org/2000/svg"
   xmlns="http://www.w3.org/2000/svg"
   xmlns:sodipodi="http://sodipodi.sourceforge.net/DTD/sodipodi-0.dtd"
   xmlns:inkscape="http://www.inkscape.org/namespaces/inkscape"
   inkscape:version="1.0 (4035a4fb49, 2020-05-01)"
   sodipodi:docname="undraw_progressive_app_m9ms.svg"
   version="1.1"
   viewBox="0 0 1139.17088 654.54324"
   height="654.54324"
   width="1139.17088"
   data-name="Layer 1"
   id="b6117b06-2b45-45bc-b789-4a82ab6612dd">
  <metadata
     id="metadata91">
    <rdf:RDF>
      <cc:Work
         rdf:about="">
        <dc:format>image/svg+xml</dc:format>
        <dc:type
           rdf:resource="http://purl.org/dc/dcmitype/StillImage" />
      </cc:Work>
    </rdf:RDF>
  </metadata>
  <defs
     id="defs89" />
  <sodipodi:namedview
     inkscape:current-layer="b6117b06-2b45-45bc-b789-4a82ab6612dd"
     inkscape:window-maximized="0"
     inkscape:window-y="166"
     inkscape:window-x="449"
     inkscape:cy="341.60421"
     inkscape:cx="199.8726"
     inkscape:zoom="0.63003135"
     showgrid="false"
     id="namedview87"
     inkscape:window-height="712"
     inkscape:window-width="2005"
     inkscape:pageshadow="2"
     inkscape:pageopacity="0"
     guidetolerance="10"
     gridtolerance="10"
     objecttolerance="10"
     borderopacity="1"
     bordercolor="#666666"
     pagecolor="#ffffff" />
  <title
     id="title2">progressive_app</title>
  <circle
     id="circle4"
     fill="#f2f2f2"
     r="59.24334"
     cy="521.76476"
     cx="246.82682" />
  <circle
     style="fill:#4972a1;fill-opacity:1"
     id="circle6"
     fill="#6c63ff"
     r="59.24334"
     cy="513.095"
     cx="256.45989" />
  <rect
     id="rect8"
     fill="#3f3d56"
     height="2"
     width="732.99951"
     y="447.54324"
     x="304.17137" />
  <path
     id="path10"
     fill="#3f3d56"
     transform="translate(-30.41456 -122.72838)"
     d="M714.20735,141.38055H454.03775v-5.36232h-117.971v5.36232H74.82467a17.5985,17.5985,0,0,0-17.59852,17.59851V515.23125a17.59856,17.59856,0,0,0,17.59852,17.59858H714.20735a17.59856,17.59856,0,0,0,17.59852-17.59858V158.97906A17.5985,17.5985,0,0,0,714.20735,141.38055Z" />
  <rect
     style="fill:#4972a1;fill-opacity:1"
     id="rect12"
     fill="#6c63ff"
     height="353.91304"
     width="627.3913"
     y="49.75362"
     x="50.4058" />
  <circle
     style="fill:#4972a1;fill-opacity:1"
     id="circle14"
     fill="#6c63ff"
     r="6.43478"
     cy="33.66667"
     cx="363.56522" />
  <polygon
     id="polygon16"
     opacity="0.1"
     points="498.374 403.667 50.406 403.667 50.406 49.754 498.374 403.667" />
  <circle
     id="circle18"
     fill="#f2f2f2"
     r="60.3068"
     cy="316.87641"
     cx="148.57375" />
  <rect
     id="rect20"
     fill="#3f3d56"
     height="12.24586"
     width="58.6052"
     y="240.62175"
     x="509.95272" />
  <rect
     id="rect22"
     fill="#3f3d56"
     height="5.24823"
     width="200.30733"
     y="145.27896"
     x="439.10165" />
  <rect
     id="rect24"
     fill="#3f3d56"
     height="5.24823"
     width="200.30733"
     y="161.89834"
     x="439.10165" />
  <rect
     id="rect26"
     fill="#3f3d56"
     height="5.24823"
     width="200.30733"
     y="178.51773"
     x="439.10165" />
  <rect
     id="rect28"
     fill="#3f3d56"
     height="5.24823"
     width="200.30733"
     y="195.13711"
     x="439.10165" />
  <rect
     id="rect30"
     fill="#3f3d56"
     height="5.24823"
     width="200.30733"
     y="211.7565"
     x="439.10165" />
  <rect
     id="rect32"
     fill="#f2f2f2"
     height="24.49173"
     width="24.49173"
     y="56.9338"
     x="614.91726" />
  <path
     id="path34"
     fill="#3f3d56"
     transform="translate(-30.41456 -122.72838)"
     d="M681.1947,215.52507h-29.74v-29.74h29.74Zm-28.44691-1.293h27.15387V187.07816H652.74779Z" />
  <path
     id="path36"
     fill="#3f3d56"
     transform="translate(-30.41456 -122.72838)"
     d="M749.42165,519.96024H688.19234v-4.41153a.87468.87468,0,0,0-.87471-.87471h-20.9929a.87468.87468,0,0,0-.87471.87471v4.41153H652.32945v-4.41153a.87467.87467,0,0,0-.8747-.87471H630.46184a.87468.87468,0,0,0-.8747.87471v4.41153H616.46657v-4.41153a.87468.87468,0,0,0-.8747-.87471H594.599a.87468.87468,0,0,0-.87471.87471v4.41153H580.60369v-4.41153a.87468.87468,0,0,0-.87471-.87471H558.73607a.87468.87468,0,0,0-.8747.87471v4.41153H544.7408v-4.41153a.87468.87468,0,0,0-.8747-.87471H522.87319a.87467.87467,0,0,0-.8747.87471v4.41153H508.87792v-4.41153a.87468.87468,0,0,0-.87471-.87471h-20.9929a.87468.87468,0,0,0-.87471.87471v4.41153H473.015v-4.41153a.87468.87468,0,0,0-.8747-.87471H307.69588a.87468.87468,0,0,0-.8747.87471v4.41153H293.70061v-4.41153a.87468.87468,0,0,0-.8747-.87471H271.833a.87467.87467,0,0,0-.8747.87471v4.41153H257.83773v-4.41153a.87468.87468,0,0,0-.87471-.87471h-20.9929a.87468.87468,0,0,0-.87471.87471v4.41153H221.97484v-4.41153a.87467.87467,0,0,0-.8747-.87471H200.10723a.87468.87468,0,0,0-.8747.87471v4.41153H186.112v-4.41153a.87468.87468,0,0,0-.8747-.87471H164.24435a.87468.87468,0,0,0-.87471.87471v4.41153H150.24908v-4.41153a.87468.87468,0,0,0-.87471-.87471H128.38146a.87468.87468,0,0,0-.8747.87471v4.41153H114.38619v-4.41153a.87468.87468,0,0,0-.8747-.87471H92.51858a.87467.87467,0,0,0-.8747.87471v4.41153H51.40747a20.99293,20.99293,0,0,0-20.99291,20.99291v9.4925A20.99291,20.99291,0,0,0,51.40747,571.4385H749.42165a20.9929,20.9929,0,0,0,20.99291-20.99285v-9.4925A20.99292,20.99292,0,0,0,749.42165,519.96024Z" />
  <path
     id="path38"
     fill="#3f3d56"
     transform="translate(-30.41456 -122.72838)"
     d="M193.58593,477.27162a76,76,0,1,1,76-76A76.08614,76.08614,0,0,1,193.58593,477.27162Zm0-150a74,74,0,1,0,74,74A74.08385,74.08385,0,0,0,193.58593,327.27162Z" />
  <rect
     id="rect40"
     fill="#3f3d56"
     height="2"
     width="254.99951"
     y="32.54324"
     x="586.17137" />
  <rect
     id="rect42"
     fill="#3f3d56"
     height="2"
     width="732.99951"
     y="560.54324"
     x="406.17137" />
  <rect
     id="rect44"
     fill="#3f3d56"
     height="2"
     width="254.99951"
     y="652.54324"
     x="192.67161" />
  <rect
     style="fill:#4972a1;fill-opacity:1"
     id="rect46"
     fill="#6c63ff"
     height="28"
     width="28"
     y="550"
     x="471" />
  <path
     id="path48"
     fill="#3f3d56"
     transform="translate(-30.41456 -122.72838)"
     d="M546.41456,684.72838h-34v-34h34Zm-32.52174-1.47826H544.9363V652.20664H513.89282Z" />
  <rect
     style="fill:#4972a1;fill-opacity:1"
     id="rect50"
     fill="#6c63ff"
     height="28"
     width="28"
     y="22"
     x="796" />
  <path
     id="path52"
     fill="#3f3d56"
     transform="translate(-30.41456 -122.72838)"
     d="M871.41456,156.72838h-34v-34h34Zm-32.52174-1.47826H869.9363V124.20664H838.89282Z" />
  <rect
     style="fill:#4972a1;fill-opacity:1"
     id="rect54"
     fill="#6c63ff"
     height="28"
     width="28"
     y="550"
     x="1078" />
  <path
     id="path56"
     fill="#3f3d56"
     transform="translate(-30.41456 -122.72838)"
     d="M1153.41456,684.72838h-34v-34h34Zm-32.52174-1.47826h31.04348V652.20664h-31.04348Z" />
  <path
     id="path58"
     fill="#3f3d56"
     transform="translate(-30.41456 -122.72838)"
     d="M1087.58593,354.6866h-2.37862V289.525a37.71374,37.71374,0,0,0-37.71385-37.71377H909.44A37.71373,37.71373,0,0,0,871.72613,289.525V647.00639A37.71374,37.71374,0,0,0,909.44,684.72017h138.05348a37.71374,37.71374,0,0,0,37.71385-37.71378V401.06969h2.37862Z" />
  <path
     style="fill:#4972a1;fill-opacity:1"
     id="path60"
     fill="#6c63ff"
     transform="translate(-30.41456 -122.72838)"
     d="M1077.176,291.74159v356.96a28.16523,28.16523,0,0,1-28.16016,28.17H910.296a28.16511,28.16511,0,0,1-28.16-28.17v-356.96a28.163,28.163,0,0,1,28.16-28.16h16.83a13.3792,13.3792,0,0,0,12.39,18.43h79.09a13.37908,13.37908,0,0,0,12.38995-18.43h18.02A28.16308,28.16308,0,0,1,1077.176,291.74159Z" />
  <rect
     id="rect62"
     fill="#3f3d56"
     height="12.24586"
     width="41.32357"
     y="376.21769"
     x="928.57968" />
  <rect
     id="rect64"
     fill="#3f3d56"
     height="5.24823"
     width="141.24028"
     y="280.8749"
     x="878.62133" />
  <rect
     id="rect66"
     fill="#3f3d56"
     height="5.24823"
     width="141.24028"
     y="297.49429"
     x="878.62133" />
  <rect
     id="rect68"
     fill="#3f3d56"
     height="5.24823"
     width="141.24028"
     y="314.11367"
     x="878.62133" />
  <rect
     id="rect70"
     fill="#3f3d56"
     height="5.24823"
     width="141.24028"
     y="330.73306"
     x="878.62133" />
  <rect
     id="rect72"
     fill="#3f3d56"
     height="5.24823"
     width="141.24028"
     y="347.35244"
     x="878.62133" />
  <rect
     id="rect74"
     fill="#f2f2f2"
     height="24.49173"
     width="24.49173"
     y="211.17873"
     x="929.68352" />
  <path
     id="path76"
     fill="#3f3d56"
     transform="translate(-30.41456 -122.72838)"
     d="M969.47386,340.03163v29.74h29.74v-29.74Zm28.45,28.45h-27.16v-27.16h27.16Z" />
  <path
     id="path78"
     opacity="0.1"
     transform="translate(-30.41456 -122.72838)"
     d="M1077.176,610.58162v38.12a28.16523,28.16523,0,0,1-28.16016,28.17H910.296a28.16511,28.16511,0,0,1-28.16-28.17v-192.21l116.87,92.33,2,1.58,21.74,17.17,2.03,1.61Z" />
  <circle
     id="circle80"
     fill="#f2f2f2"
     r="43.86783"
     cy="498.70691"
     cx="937.24147" />
  <path
     id="path82"
     fill="#3f3d56"
     transform="translate(-30.41456 -122.72838)"
     d="M350.58593,777.27162a87,87,0,1,1,87-87A87.09858,87.09858,0,0,1,350.58593,777.27162Zm0-172a85,85,0,1,0,85,85A85.09629,85.09629,0,0,0,350.58593,605.27162Z" />
  <path
     id="path84"
     fill="#3f3d56"
     transform="translate(-30.41456 -122.72838)"
     d="M980.58593,655.27162a55,55,0,1,1,55-55A55.06223,55.06223,0,0,1,980.58593,655.27162Zm0-108a53,53,0,1,0,53,53A53.05963,53.05963,0,0,0,980.58593,547.27162Z" />
</svg>
